<?xml version="1.0" encoding="utf-8" ?>
<svg baseProfile="full" height="180px" version="1.1" viewBox="0 0 600 180" width="600px" xmlns="http://www.w3.org/2000/svg" xmlns:ev="http://www.w3.org/2001/xml-events" xmlns:xlink="http://www.w3.org/1999/xlink"><defs><linearGradient id="grad1" x1="0%" x2="100%" y1="0%" y2="0%"><stop offset="0%" stop-color="#00c8ff" /><stop offset="100%" stop-color="#8e44ff" /></linearGradient></defs><rect fill="url(#grad1)" height="30" rx="2" ry="2" width="12" x="30" y="100" /><rect fill="url(#grad1)" height="50" rx="2" ry="2" width="12" x="48" y="80" /><rect fill="url(#grad1)" height="70" rx="2" ry="2" width="12" x="66" y="60" /><rect fill="url(#grad1)" height="100" rx="2" ry="2" width="12" x="84" y="30" /><polyline fill="none" points="39.0,100 57.0,80 75.0,60 93.0,30" stroke="url(#grad1)" stroke-width="3" /><line stroke="url(#grad1)" stroke-width="3" x1="93.0" x2="101.0" y1="30" y2="18" /><path d="M200,90 h10 v-20 h15 v-10 h-15 v-15 h20 v-10 h-30 v55 z M240,90 v-40 h15 v-10 h-25 v55 h10 z M270,90 h10 v-20 h15 v-10 h-15 v-15 h20 v-10 h-30 v55 z M310,90 h10 v-20 h15 v-10 h-15 v-15 h20 v-10 h-30 v55 z M350,90 h10 v-45 h-10 v45 z M370,90 h10 v-30 h10 v30 h10 v-45 h-10 v10 h-10 v-10 h-10 v45 z M410,90 h10 v-45 h-10 v45 z M430,90 h10 v-15 h15 v-10 h-15 v-10 h20 v-10 h-30 v45 z" fill="#ffffff" /></svg>